<svg data-v-fde0c5aa="" xmlns="http://www.w3.org/2000/svg" viewBox="0 0 300 300" class="font"><!----><defs data-v-fde0c5aa=""><!----></defs><rect data-v-fde0c5aa="" fill="transparent" x="0" y="0" width="300px" height="300px" class="logo-background-square"></rect><defs data-v-fde0c5aa=""><linearGradient data-v-fde0c5aa="" gradientTransform="rotate(25)" id="293d7369-0910-41ce-97b6-e958c8eea3b4" x1="0%" y1="0%" x2="100%" y2="0%"><stop data-v-fde0c5aa="" offset="0%" stop-color="#E98E0D" stop-opacity="1"></stop><stop data-v-fde0c5aa="" offset="100%" stop-color="#1536F1" stop-opacity="1"></stop></linearGradient></defs><g data-v-fde0c5aa="" id="3e7b22ad-19a6-42e8-b905-827a12230afc" fill="url(#293d7369-0910-41ce-97b6-e958c8eea3b4)" transform="matrix(6.303724652758725,0,0,6.303724652758725,34.2636104006678,95.48328810166463)"><path d="M8.11 3.91L8.11 3.91Q8.12 4.03 8.12 4.42Q8.12 4.81 8.11 5.37Q8.10 5.93 8.08 6.62Q8.07 7.31 8.04 8.05Q8.01 8.79 7.98 9.54Q7.95 10.29 7.92 10.96Q7.88 11.63 7.84 12.18Q7.80 12.73 7.76 13.07L7.76 13.07Q7.76 13.11 7.72 13.14Q7.68 13.17 7.64 13.25L7.64 13.25Q7.60 13.32 7.56 13.32Q7.52 13.33 7.49 13.32Q7.46 13.32 7.45 13.32Q7.44 13.33 7.45 13.39L7.45 13.39Q7.46 13.43 7.41 13.46Q7.35 13.48 7.31 13.45L7.31 13.45Q7.25 13.41 7.18 13.35Q7.10 13.29 7.08 13.29L7.08 13.29Q7.04 13.28 7.05 13.32Q7.07 13.36 7.09 13.41Q7.12 13.46 7.13 13.50Q7.14 13.55 7.08 13.56L7.08 13.56Q6.98 13.57 6.85 13.51Q6.71 13.45 6.60 13.36L6.60 13.36Q6.50 13.29 6.31 13.03Q6.12 12.77 5.85 12.37Q5.59 11.97 5.27 11.46Q4.96 10.94 4.61 10.36Q4.27 9.78 3.92 9.16Q3.56 8.54 3.23 7.92Q2.89 7.30 2.58 6.71Q2.28 6.13 2.03 5.62L2.03 5.62Q2.00 5.91 1.98 6.40Q1.96 6.90 1.94 7.50Q1.93 8.11 1.91 8.78Q1.90 9.45 1.89 10.10Q1.88 10.75 1.87 11.33Q1.87 11.91 1.86 12.33L1.86 12.33Q1.86 12.60 1.85 12.71Q1.84 12.82 1.83 12.87Q1.82 12.91 1.81 12.92Q1.80 12.94 1.80 13.02L1.80 13.02Q1.80 13.24 1.78 13.42Q1.75 13.60 1.65 13.62L1.65 13.62Q1.60 13.65 1.55 13.61Q1.50 13.56 1.43 13.58L1.43 13.58Q1.41 13.58 1.38 13.62Q1.35 13.66 1.27 13.66L1.27 13.66Q1.21 13.66 1.12 13.60Q1.03 13.55 1.00 13.41L1.00 13.41L0.98 13.15Q0.97 13.11 0.96 13.10Q0.95 13.08 0.94 13.06Q0.93 13.03 0.92 12.96Q0.92 12.90 0.91 12.74L0.91 12.74Q0.91 12.70 0.92 12.36Q0.94 12.01 0.96 11.46Q0.98 10.92 1.02 10.22Q1.05 9.52 1.08 8.78Q1.12 8.03 1.16 7.29Q1.20 6.56 1.24 5.93Q1.29 5.30 1.33 4.83Q1.37 4.36 1.40 4.16L1.40 4.16Q1.37 4.08 1.35 4.01Q1.33 3.93 1.33 3.87L1.33 3.87Q1.33 3.83 1.34 3.81Q1.36 3.80 1.39 3.79Q1.42 3.78 1.46 3.77Q1.49 3.75 1.52 3.71L1.52 3.71Q1.54 3.69 1.55 3.61Q1.56 3.53 1.59 3.53L1.59 3.53Q1.69 3.53 1.75 3.49Q1.81 3.45 1.92 3.43L1.92 3.43Q1.92 3.32 1.98 3.28L1.98 3.28Q2.01 3.26 2.04 3.27L2.04 3.27Q2.16 3.28 2.23 3.36Q2.29 3.44 2.32 3.51L2.32 3.51Q2.36 3.59 2.38 3.63Q2.40 3.67 2.43 3.75L2.43 3.75Q2.48 3.82 2.62 4.07Q2.76 4.31 2.97 4.68Q3.17 5.05 3.43 5.51Q3.69 5.97 3.98 6.49Q4.26 7.01 4.56 7.54Q4.86 8.08 5.15 8.59Q5.43 9.11 5.69 9.57Q5.95 10.04 6.17 10.41Q6.38 10.78 6.52 11.03Q6.67 11.28 6.72 11.36L6.72 11.36Q6.86 11.56 6.91 11.58Q6.97 11.61 7.04 11.46L7.04 11.46Q7.08 11.39 7.11 11.14Q7.14 10.89 7.17 10.51Q7.20 10.12 7.22 9.64Q7.25 9.15 7.27 8.62Q7.29 8.09 7.30 7.53Q7.31 6.97 7.32 6.44Q7.32 5.91 7.32 5.45Q7.31 4.98 7.29 4.63L7.29 4.63Q7.29 4.44 7.29 4.29L7.29 4.29Q7.29 4.16 7.30 4.05Q7.31 3.94 7.35 3.94L7.35 3.94Q7.40 3.90 7.43 3.89Q7.47 3.88 7.50 3.89Q7.52 3.89 7.54 3.90Q7.56 3.90 7.57 3.90L7.57 3.90Q7.59 3.89 7.59 3.88Q7.59 3.86 7.59 3.84Q7.59 3.82 7.61 3.80Q7.62 3.77 7.67 3.76L7.67 3.76Q7.72 3.74 7.76 3.74Q7.79 3.73 7.81 3.74Q7.83 3.75 7.84 3.75Q7.85 3.76 7.88 3.75L7.88 3.75Q7.94 3.72 7.97 3.69Q8.00 3.67 8.03 3.68Q8.06 3.68 8.08 3.74Q8.09 3.79 8.11 3.91ZM13.69 13.04L13.69 13.04Q13.74 13.10 13.73 13.16Q13.71 13.22 13.67 13.27Q13.63 13.32 13.57 13.34Q13.51 13.36 13.47 13.34L13.47 13.34Q13.37 13.32 13.27 13.36Q13.16 13.40 13.12 13.43L13.12 13.43Q13.08 13.47 13.10 13.52Q13.13 13.57 13.16 13.62L13.16 13.62Q13.21 13.69 13.17 13.77Q13.12 13.85 13.02 13.84L13.02 13.84Q12.98 13.84 12.87 13.71Q12.76 13.58 12.60 13.38Q12.45 13.19 12.27 12.93Q12.09 12.67 11.91 12.41Q11.73 12.15 11.56 11.89Q11.40 11.64 11.27 11.44L11.27 11.44Q11.12 11.63 10.93 11.85Q10.75 12.07 10.56 12.30Q10.37 12.53 10.19 12.75Q10.01 12.96 9.86 13.13Q9.72 13.30 9.63 13.40Q9.53 13.51 9.51 13.51L9.51 13.51Q9.43 13.56 9.38 13.62Q9.33 13.69 9.23 13.71L9.23 13.71Q9.18 13.72 9.14 13.70Q9.11 13.69 9.07 13.66Q9.04 13.64 9.00 13.62Q8.97 13.60 8.93 13.61L8.93 13.61Q8.87 13.61 8.83 13.50Q8.80 13.40 8.89 13.26L8.89 13.26Q8.90 13.25 9.00 13.12Q9.11 13.00 9.27 12.79Q9.43 12.59 9.63 12.34Q9.84 12.09 10.06 11.82Q10.27 11.56 10.49 11.31Q10.70 11.05 10.88 10.86L10.88 10.86Q10.66 10.55 10.41 10.17Q10.16 9.78 9.92 9.43Q9.68 9.08 9.49 8.81Q9.30 8.54 9.23 8.46L9.23 8.46Q9.15 8.39 9.11 8.33L9.11 8.33Q9.08 8.27 9.07 8.23Q9.06 8.19 9.13 8.18L9.13 8.18Q9.16 8.18 9.17 8.15Q9.18 8.11 9.19 8.08Q9.20 8.05 9.21 8.03Q9.23 8.00 9.27 7.98L9.27 7.98Q9.34 7.96 9.47 7.96Q9.60 7.96 9.67 7.93L9.67 7.93Q9.76 7.91 9.79 7.93Q9.82 7.95 9.88 8.01L9.88 8.01Q9.91 8.04 9.91 8.03Q9.91 8.03 9.91 8.00Q9.91 7.98 9.92 7.96Q9.93 7.94 9.95 7.93L9.95 7.93Q10.01 7.91 10.05 7.90Q10.08 7.90 10.10 7.83L10.10 7.83Q10.11 7.76 10.12 7.76Q10.13 7.77 10.21 7.83L10.21 7.83Q10.23 7.87 10.38 8.07Q10.53 8.27 10.75 8.58Q10.96 8.88 11.19 9.24Q11.43 9.60 11.63 9.95L11.63 9.95Q11.84 9.67 12.09 9.32Q12.35 8.98 12.59 8.66Q12.83 8.35 13.04 8.12Q13.24 7.89 13.34 7.83L13.34 7.83Q13.42 7.79 13.45 7.77Q13.49 7.76 13.51 7.76L13.51 7.76Q13.54 7.76 13.58 7.80L13.58 7.80Q13.64 7.83 13.70 7.85Q13.76 7.87 13.80 7.93L13.80 7.93Q13.86 7.99 13.86 8.06Q13.87 8.12 13.85 8.20L13.85 8.20Q13.84 8.23 13.73 8.39Q13.62 8.56 13.40 8.85Q13.18 9.15 12.83 9.57Q12.49 10.00 12.00 10.58L12.00 10.58Q12.13 10.81 12.30 11.08Q12.48 11.35 12.66 11.61Q12.84 11.87 13.01 12.12Q13.18 12.36 13.32 12.55Q13.47 12.75 13.57 12.88Q13.67 13.01 13.69 13.04ZM16.74 4.26L16.74 4.26Q16.73 4.33 16.70 4.77Q16.68 5.21 16.65 5.91L16.65 5.91Q16.61 6.68 16.55 7.28Q16.49 7.88 16.45 8.36L16.45 8.36Q16.71 8.18 17.04 7.86Q17.37 7.55 17.72 7.19Q18.06 6.82 18.40 6.44Q18.74 6.06 19.02 5.72Q19.30 5.39 19.50 5.13Q19.71 4.88 19.78 4.78L19.78 4.78Q19.93 4.59 20.11 4.42Q20.28 4.25 20.44 4.12Q20.60 3.99 20.73 3.90Q20.86 3.81 20.93 3.79L20.93 3.79Q20.98 3.77 21.01 3.78L21.01 3.78Q21.05 3.79 21.07 3.81Q21.10 3.83 21.10 3.90L21.10 3.90Q21.14 3.93 21.12 3.95Q21.10 3.97 21.12 3.99L21.12 3.99Q21.14 4.02 21.16 4.05Q21.18 4.07 21.15 4.14L21.15 4.14Q21.10 4.26 21.03 4.35Q20.97 4.45 20.86 4.59Q20.75 4.72 20.57 4.94Q20.38 5.15 20.06 5.50L20.06 5.50Q19.76 5.82 19.35 6.30Q18.95 6.77 18.49 7.27Q18.03 7.78 17.52 8.27Q17.01 8.76 16.50 9.13L16.50 9.13Q16.70 9.17 16.95 9.26Q17.20 9.34 17.49 9.48Q17.78 9.63 18.11 9.84Q18.44 10.05 18.81 10.35L18.81 10.35Q19.24 10.71 19.64 11.06Q20.04 11.42 20.45 11.70Q20.86 11.98 21.29 12.16Q21.72 12.34 22.20 12.34L22.20 12.34Q22.52 12.34 22.86 12.25Q23.21 12.16 23.59 11.95L23.59 11.95Q23.68 11.90 23.72 11.89Q23.77 11.89 23.78 11.90Q23.79 11.92 23.78 11.95Q23.76 11.98 23.74 12.00L23.74 12.00Q23.73 12.02 23.69 12.04Q23.66 12.07 23.61 12.10Q23.57 12.13 23.53 12.16Q23.49 12.20 23.46 12.24L23.46 12.24Q23.44 12.26 23.46 12.26Q23.48 12.26 23.50 12.27Q23.52 12.28 23.51 12.31Q23.50 12.33 23.42 12.38L23.42 12.38Q23.38 12.41 23.35 12.45Q23.32 12.50 23.30 12.54Q23.28 12.58 23.24 12.63Q23.21 12.67 23.15 12.70L23.15 12.70Q23.03 12.77 22.97 12.88Q22.90 12.98 22.86 13.02L22.86 13.02Q22.80 13.08 22.62 13.19Q22.44 13.30 22.18 13.40Q21.92 13.50 21.62 13.56Q21.31 13.62 21 13.57L21 13.57Q20.54 13.49 20.12 13.21Q19.71 12.93 19.32 12.55Q18.94 12.17 18.57 11.74Q18.21 11.30 17.86 10.91Q17.50 10.52 17.14 10.22Q16.78 9.93 16.41 9.82L16.41 9.82Q16.41 10.09 16.42 10.44Q16.43 10.79 16.44 11.16Q16.45 11.53 16.46 11.89Q16.47 12.25 16.48 12.54Q16.49 12.84 16.50 13.04Q16.51 13.23 16.52 13.28L16.52 13.28Q16.54 13.45 16.52 13.48Q16.49 13.52 16.41 13.54L16.41 13.54Q16.37 13.56 16.33 13.54Q16.30 13.52 16.26 13.56L16.26 13.56Q16.24 13.58 16.23 13.60Q16.22 13.63 16.21 13.66Q16.19 13.69 16.16 13.72Q16.13 13.75 16.06 13.77L16.06 13.77Q16.02 13.78 15.99 13.78Q15.95 13.78 15.90 13.78L15.90 13.78Q15.85 13.79 15.76 13.74Q15.67 13.69 15.61 13.64L15.61 13.64Q15.57 13.60 15.54 13.55Q15.50 13.49 15.47 13.43L15.47 13.43Q15.44 13.39 15.39 13.37Q15.35 13.35 15.33 13.26L15.33 13.26Q15.25 12.95 15.23 12.48Q15.20 12.02 15.20 11.53L15.20 11.53Q15.20 11.24 15.21 10.95Q15.22 10.67 15.23 10.41Q15.24 10.16 15.25 9.94Q15.26 9.72 15.27 9.57L15.27 9.57L14.98 9.54Q14.85 9.54 14.80 9.52Q14.75 9.51 14.71 9.48Q14.68 9.46 14.66 9.43Q14.63 9.39 14.57 9.36L14.57 9.36Q14.46 9.28 14.44 9.21Q14.42 9.14 14.57 9.02L14.57 9.02Q14.68 8.93 14.85 8.90Q15.03 8.86 15.33 8.78L15.33 8.78Q15.34 8.46 15.36 8.05Q15.37 7.64 15.40 7.19Q15.43 6.75 15.46 6.31Q15.49 5.86 15.52 5.46Q15.56 5.05 15.60 4.72Q15.64 4.38 15.68 4.16L15.68 4.16Q15.70 4.07 15.72 4.03Q15.74 3.99 15.78 3.96L15.78 3.96Q15.82 3.96 15.85 3.99Q15.89 4.03 15.94 3.99L15.94 3.99Q15.98 3.97 16.01 3.95Q16.04 3.94 16.05 3.93Q16.07 3.93 16.08 3.95Q16.10 3.97 16.13 4.03L16.13 4.03Q16.13 4.03 16.14 4.03Q16.15 4.02 16.17 4.01L16.17 4.01L16.19 3.98Q16.24 3.96 16.32 3.95Q16.39 3.94 16.41 3.99L16.41 3.99Q16.41 4.04 16.43 4.03Q16.44 4.02 16.46 3.99Q16.49 3.96 16.52 3.94Q16.56 3.91 16.60 3.92L16.60 3.92Q16.70 3.96 16.75 4.04Q16.80 4.12 16.74 4.26ZM27.32 9.50L27.32 9.50Q27.32 9.73 27.28 10.08Q27.23 10.42 27.17 10.82Q27.10 11.21 27.05 11.62Q27.00 12.03 27.00 12.39L27.00 12.39Q27.00 12.63 27.03 12.85Q27.06 13.06 27.15 13.22L27.15 13.22Q27.19 13.31 27.20 13.38Q27.20 13.45 27.19 13.50Q27.17 13.55 27.16 13.59Q27.15 13.62 27.16 13.66L27.16 13.66Q27.17 13.69 27.15 13.74Q27.13 13.78 27.09 13.82Q27.05 13.86 27.00 13.87Q26.95 13.89 26.91 13.86L26.91 13.86Q26.83 13.82 26.79 13.81Q26.74 13.80 26.71 13.81Q26.68 13.82 26.66 13.84Q26.63 13.85 26.60 13.84L26.60 13.84Q26.48 13.77 26.35 13.69Q26.21 13.61 26.17 13.51L26.17 13.51Q26.14 13.47 26.12 13.38Q26.09 13.28 26.08 13.15Q26.06 13.02 26.04 12.87Q26.03 12.72 26.02 12.58L26.02 12.58Q25.80 13.00 25.54 13.28Q25.29 13.56 25.03 13.73Q24.77 13.90 24.52 13.97Q24.27 14.03 24.07 14.03L24.07 14.03Q23.86 14.03 23.70 13.98Q23.54 13.92 23.45 13.85L23.45 13.85Q23.11 13.51 22.97 13.31Q22.83 13.10 22.85 12.97L22.85 12.97Q22.88 12.53 23.06 12.16Q23.24 11.79 23.50 11.48Q23.77 11.17 24.10 10.92Q24.43 10.67 24.78 10.48Q25.12 10.28 25.46 10.15Q25.79 10.01 26.07 9.93L26.07 9.93Q26.05 9.56 26.03 9.29Q26.02 9.01 25.98 8.88L25.98 8.88Q25.88 8.46 25.67 8.25Q25.46 8.04 25.16 8.04L25.16 8.04Q24.96 8.04 24.77 8.18Q24.58 8.33 24.42 8.57Q24.26 8.82 24.16 9.14Q24.06 9.46 24.06 9.82L24.06 9.82Q24.06 9.91 24.06 9.99Q24.07 10.07 24.08 10.16L24.08 10.16Q24.09 10.21 24.05 10.23Q24.01 10.25 23.96 10.26Q23.91 10.27 23.84 10.27Q23.78 10.28 23.74 10.29L23.74 10.29Q23.71 10.31 23.69 10.31Q23.67 10.32 23.65 10.31Q23.63 10.29 23.59 10.27Q23.56 10.24 23.51 10.20L23.51 10.20Q23.45 10.16 23.40 10.13Q23.34 10.10 23.29 10.08Q23.25 10.06 23.22 10.05Q23.19 10.03 23.19 10.00L23.19 10.00Q23.19 9.58 23.38 9.13Q23.56 8.67 23.88 8.30Q24.20 7.93 24.62 7.69Q25.04 7.45 25.51 7.45L25.51 7.45Q25.89 7.45 26.17 7.57Q26.46 7.68 26.65 7.87Q26.85 8.05 26.98 8.28Q27.10 8.50 27.18 8.73Q27.25 8.96 27.28 9.16Q27.31 9.37 27.32 9.50ZM26.08 11.39L26.08 10.71Q25.87 10.79 25.63 10.91Q25.38 11.03 25.13 11.20Q24.88 11.37 24.62 11.59Q24.37 11.81 24.15 12.07L24.15 12.07Q23.89 12.38 23.78 12.62Q23.66 12.86 23.63 13.03Q23.60 13.19 23.65 13.29Q23.69 13.38 23.74 13.41L23.74 13.41Q23.95 13.49 24.18 13.42Q24.41 13.36 24.64 13.19Q24.87 13.02 25.08 12.79Q25.30 12.55 25.49 12.30Q25.68 12.05 25.83 11.81Q25.98 11.57 26.08 11.39L26.08 11.39ZM31.74 8.59L31.74 8.59Q31.73 8.78 31.70 8.98Q31.67 9.17 31.62 9.35Q31.56 9.52 31.48 9.66Q31.40 9.80 31.31 9.88L31.31 9.88Q31.23 9.95 31.18 9.95Q31.13 9.95 31.10 9.92Q31.07 9.89 31.05 9.86Q31.03 9.82 30.99 9.82L30.99 9.82Q30.97 9.81 30.92 9.82Q30.88 9.83 30.83 9.82Q30.79 9.82 30.75 9.77Q30.71 9.73 30.70 9.61L30.70 9.61Q30.69 9.48 30.71 9.27Q30.73 9.06 30.73 8.87L30.73 8.87Q30.73 8.69 30.70 8.57Q30.66 8.45 30.56 8.45L30.56 8.45Q30.52 8.45 30.40 8.52Q30.28 8.59 30.13 8.83Q29.99 9.06 29.85 9.50Q29.70 9.94 29.61 10.67L29.61 10.67Q29.61 11.61 29.63 12.19Q29.64 12.76 29.64 13.08L29.64 13.08Q29.64 13.36 29.63 13.47Q29.61 13.59 29.56 13.62L29.56 13.62Q29.52 13.64 29.43 13.68Q29.33 13.71 29.21 13.73Q29.10 13.76 29.00 13.78Q28.90 13.80 28.87 13.79L28.87 13.79Q28.85 13.79 28.79 13.75Q28.74 13.71 28.68 13.66Q28.62 13.60 28.57 13.55Q28.53 13.49 28.52 13.45L28.52 13.45Q28.51 13.38 28.51 13.14Q28.51 12.89 28.52 12.55Q28.52 12.21 28.53 11.80Q28.53 11.40 28.53 10.99L28.53 10.99Q28.53 10.73 28.55 10.41Q28.57 10.10 28.59 9.77Q28.62 9.44 28.64 9.13Q28.67 8.81 28.69 8.56Q28.72 8.31 28.73 8.15Q28.75 7.98 28.76 7.94L28.76 7.94Q28.77 7.89 28.81 7.90Q28.85 7.92 28.91 7.95Q28.96 7.98 29.00 8.01Q29.04 8.04 29.05 8.01L29.05 8.01Q29.07 7.95 29.16 7.99Q29.24 8.04 29.32 8.09L29.32 8.09Q29.35 8.13 29.38 8.15Q29.42 8.18 29.46 8.21Q29.49 8.25 29.51 8.31Q29.54 8.37 29.54 8.48L29.54 8.48Q29.54 8.57 29.55 8.76Q29.57 8.96 29.59 9.21L29.59 9.21Q29.66 8.97 29.77 8.70Q29.87 8.42 30.02 8.19Q30.17 7.96 30.38 7.81Q30.58 7.66 30.87 7.66L30.87 7.66Q31.03 7.66 31.19 7.72Q31.34 7.79 31.47 7.91Q31.60 8.03 31.67 8.20Q31.75 8.37 31.74 8.59ZM34.13 5.46L34.13 5.46Q34.13 5.50 34.12 5.68Q34.10 5.85 34.08 6.14Q34.06 6.43 34.02 6.81Q33.99 7.18 33.95 7.62L33.95 7.62Q34.38 7.57 34.77 7.54Q35.16 7.51 35.42 7.51L35.42 7.51Q35.51 7.51 35.58 7.54Q35.65 7.57 35.69 7.62Q35.74 7.66 35.77 7.71Q35.79 7.77 35.80 7.80L35.80 7.80Q35.80 7.83 35.81 7.86Q35.81 7.90 35.81 7.93L35.81 7.93Q35.81 8.07 35.69 8.20Q35.57 8.34 35.33 8.37L35.33 8.37L33.88 8.53Q33.84 9.02 33.82 9.54Q33.79 10.06 33.77 10.58Q33.74 11.09 33.73 11.59Q33.71 12.09 33.71 12.54L33.71 12.54Q33.71 12.82 33.73 13.00Q33.74 13.18 33.74 13.23L33.74 13.23Q33.74 13.35 33.70 13.46Q33.65 13.58 33.60 13.67Q33.54 13.76 33.47 13.82Q33.41 13.88 33.37 13.88L33.37 13.88Q33.12 13.88 32.98 13.72Q32.83 13.57 32.76 13.31Q32.69 13.05 32.67 12.71Q32.65 12.38 32.65 12.02L32.65 12.02Q32.65 11.16 32.70 10.31Q32.74 9.45 32.83 8.65L32.83 8.65L31.98 8.76Q31.96 8.76 31.94 8.76Q31.92 8.77 31.89 8.77L31.89 8.77Q31.76 8.77 31.68 8.71Q31.60 8.65 31.56 8.57Q31.52 8.48 31.51 8.40Q31.50 8.31 31.50 8.26L31.50 8.26Q31.50 8.17 31.53 8.09Q31.55 8.00 31.63 7.98L31.63 7.98Q31.77 7.93 32.13 7.86Q32.49 7.80 32.94 7.73L32.94 7.73Q33.02 7.18 33.10 6.72Q33.17 6.25 33.25 5.92Q33.33 5.58 33.39 5.39Q33.46 5.20 33.50 5.20L33.50 5.20Q33.52 5.20 33.54 5.21Q33.56 5.22 33.57 5.22L33.57 5.22Q33.61 5.22 33.64 5.17Q33.66 5.13 33.73 5.13L33.73 5.13Q33.79 5.13 33.86 5.16Q33.93 5.20 33.99 5.26Q34.05 5.31 34.09 5.37Q34.13 5.43 34.13 5.46Z"></path></g><!----><!----></svg>